<svg xmlns="http://www.w3.org/2000/svg" width="1200" height="630" viewBox="0 0 1200 630" role="img" aria-labelledby="title desc">
  <title id="title">Omnicartix Ltd social preview</title>
  <desc id="desc">Premium blue corporate preview graphic for Omnicartix Ltd.</desc>
  <defs>
    <linearGradient id="bg" x1="0" y1="0" x2="1" y2="1">
      <stop offset="0" stop-color="#0F172A"/>
      <stop offset="0.55" stop-color="#1D4ED8"/>
      <stop offset="1" stop-color="#06B6D4"/>
    </linearGradient>
    <linearGradient id="mark" x1="0" y1="0" x2="1" y2="1">
      <stop offset="0" stop-color="#2563EB"/>
      <stop offset="1" stop-color="#06B6D4"/>
    </linearGradient>
    <filter id="shadow" x="-20%" y="-20%" width="140%" height="140%">
      <feDropShadow dx="0" dy="28" stdDeviation="32" flood-color="#020617" flood-opacity="0.28"/>
    </filter>
  </defs>
  <rect width="1200" height="630" fill="#F8FAFC"/>
  <rect x="56" y="56" width="1088" height="518" rx="48" fill="url(#bg)"/>
  <circle cx="960" cy="132" r="210" fill="#FFFFFF" opacity="0.08"/>
  <circle cx="160" cy="520" r="180" fill="#06B6D4" opacity="0.13"/>
  <g filter="url(#shadow)">
    <rect x="720" y="142" width="302" height="346" rx="42" fill="#FFFFFF" opacity="0.94"/>
    <rect x="760" y="188" width="180" height="24" rx="12" fill="#DBEAFE"/>
    <rect x="760" y="236" width="220" height="18" rx="9" fill="#E0F2FE"/>
    <circle cx="810" cy="350" r="54" fill="url(#mark)"/>
    <circle cx="926" cy="350" r="54" fill="#0F172A"/>
    <path d="M810 350l58-66l58 66" fill="none" stroke="#FFFFFF" stroke-width="12" stroke-linecap="round" stroke-linejoin="round"/>
  </g>
  <g transform="translate(160 168)">
    <circle cx="48" cy="48" r="42" fill="none" stroke="#FFFFFF" stroke-width="8" opacity="0.95"/>
    <path d="M24 57c8-28 38-42 64-28c-8 28-38 42-64 28Z" fill="#FFFFFF" opacity="0.95"/>
    <circle cx="58" cy="54" r="7" fill="#06B6D4"/>
  </g>
  <text x="160" y="332" fill="#FFFFFF" font-family="Manrope, Inter, Arial, sans-serif" font-size="72" font-weight="800" letter-spacing="-3">Omnicartix Ltd</text>
  <text x="164" y="394" fill="#DDEBFF" font-family="Inter, Arial, sans-serif" font-size="30" font-weight="600">Building modern consumer brands for everyday living.</text>
  <text x="164" y="454" fill="#BAE6FD" font-family="Inter, Arial, sans-serif" font-size="22" font-weight="700" letter-spacing="2">UK-REGISTERED CONSUMER BRAND DEVELOPMENT COMPANY</text>
</svg>
